<?xml version="1.0" encoding="utf-8"?>
<!-- Generator: Adobe Illustrator 19.1.1, SVG Export Plug-In . SVG Version: 6.00 Build 0)  -->
<svg version="1.1" id="Capa_1" xmlns="http://www.w3.org/2000/svg" xmlns:xlink="http://www.w3.org/1999/xlink" x="0px" y="0px"
	 viewBox="-117 241.7 359.2 359.2" style="enable-background:new -117 241.7 359.2 359.2;" xml:space="preserve">
<style type="text/css">
	.st0{fill:#888888;}
</style>
<g>
	<g>
		<path class="st0" d="M-76.5,570.7c35.5,33.7,105.3,24.5,149.9,22.6c36.7-1.8,72.8-4.3,109.5-9.2c16.5-2.4,47.7-1.8,58.8-15.9
			c0.6-0.6,0.6-2.4-0.6-3.1c-14.7-8-41.6,1.2-58.1,3.1c-30.6,3.7-61.8,6.7-92.4,8c-30.6,1.8-61.8,2.4-92.4,0.6
			c-20.8-1.2-48.3-0.6-63.6-17.1c-30-32.4-29.4-88.1-27.5-129.7c1.8-41.6,8-82.6,17.7-123c2.4-10.4-12.2-14.1-15.3-4.3
			c-12.2,45.3-18.4,94.2-19,140.8C-109.5,483.8-108.9,541.4-76.5,570.7z"/>
		<path class="st0" d="M-115.6,306.4c1.8,4.3,9.2,6.7,11.6,1.2c3.7-7.3,4.3-15.3,7.3-23.3c2.4-4.9,4.9-9.8,7.3-14.7
			c9.8,15.9,19,31.8,28.8,47.7c3.1,4.9,12.2,1.8,9.8-4.3c-8.6-20.8-22-39.8-30.6-60.6c-3.1-6.7-10.4-8-14.7-1.8
			C-105.8,264.7-121.8,289.2-115.6,306.4z"/>
	</g>
</g>
</svg>
